<mxfile host="www.draw.io" modified="2019-11-08T09:37:01.962Z" agent="Mozilla/5.0 (Macintosh; Intel Mac OS X 10_13_6) AppleWebKit/537.36 (KHTML, like Gecko) Chrome/78.0.3904.97 Safari/537.36" etag="XmDbjAe-_IlGBQyAYFqN" version="12.2.2" type="github" pages="1">
  <diagram id="NNjclXHG8el0X2KKnLPg" name="第 1 页">
    <mxGraphModel dx="882" dy="623" grid="1" gridSize="10" guides="1" tooltips="1" connect="1" arrows="1" fold="1" page="1" pageScale="1" pageWidth="827" pageHeight="1169" math="0" shadow="0">
      <root>
        <mxCell id="0"/>
        <mxCell id="1" parent="0"/>
        <mxCell id="fRKQXHGXxSvQ_lllcBH7-1" value="&lt;font style=&quot;font-size: 18px&quot; color=&quot;#ff66b3&quot;&gt;&lt;b&gt;市场&lt;/b&gt;&lt;/font&gt;" style="ellipse;whiteSpace=wrap;html=1;aspect=fixed;" parent="1" vertex="1">
          <mxGeometry x="220" y="60" width="160" height="160" as="geometry"/>
        </mxCell>
        <mxCell id="fRKQXHGXxSvQ_lllcBH7-3" value="" style="endArrow=classic;html=1;exitX=0.625;exitY=0.2;exitDx=0;exitDy=0;exitPerimeter=0;entryX=0;entryY=0.5;entryDx=0;entryDy=0;" parent="1" source="fRKQXHGXxSvQ_lllcBH7-4" target="fRKQXHGXxSvQ_lllcBH7-1" edge="1">
          <mxGeometry width="50" height="50" relative="1" as="geometry">
            <mxPoint x="230" y="270" as="sourcePoint"/>
            <mxPoint x="270" y="240" as="targetPoint"/>
          </mxGeometry>
        </mxCell>
        <mxCell id="fRKQXHGXxSvQ_lllcBH7-27" value="观察" style="text;html=1;resizable=0;points=[];align=center;verticalAlign=middle;labelBackgroundColor=#ffffff;" parent="fRKQXHGXxSvQ_lllcBH7-3" vertex="1" connectable="0">
          <mxGeometry x="0.0077" relative="1" as="geometry">
            <mxPoint as="offset"/>
          </mxGeometry>
        </mxCell>
        <mxCell id="fRKQXHGXxSvQ_lllcBH7-4" value="眼光/想法" style="ellipse;shape=cloud;whiteSpace=wrap;html=1;" parent="1" vertex="1">
          <mxGeometry x="30" y="265" width="120" height="80" as="geometry"/>
        </mxCell>
        <mxCell id="fRKQXHGXxSvQ_lllcBH7-14" value="" style="edgeStyle=orthogonalEdgeStyle;rounded=0;orthogonalLoop=1;jettySize=auto;html=1;" parent="1" source="fRKQXHGXxSvQ_lllcBH7-7" target="fRKQXHGXxSvQ_lllcBH7-15" edge="1">
          <mxGeometry relative="1" as="geometry">
            <mxPoint x="563" y="260" as="targetPoint"/>
            <Array as="points">
              <mxPoint x="510" y="305"/>
              <mxPoint x="510" y="305"/>
            </Array>
          </mxGeometry>
        </mxCell>
        <mxCell id="fRKQXHGXxSvQ_lllcBH7-16" value="研发" style="text;html=1;resizable=0;points=[];align=center;verticalAlign=middle;labelBackgroundColor=#ffffff;" parent="fRKQXHGXxSvQ_lllcBH7-14" vertex="1" connectable="0">
          <mxGeometry x="-0.15" y="2" relative="1" as="geometry">
            <mxPoint as="offset"/>
          </mxGeometry>
        </mxCell>
        <mxCell id="fRKQXHGXxSvQ_lllcBH7-7" value="需求" style="shape=document;whiteSpace=wrap;html=1;boundedLbl=1;" parent="1" vertex="1">
          <mxGeometry x="265" y="285" width="70" height="40" as="geometry"/>
        </mxCell>
        <mxCell id="fRKQXHGXxSvQ_lllcBH7-8" value="用户" style="shape=umlActor;verticalLabelPosition=bottom;labelBackgroundColor=#ffffff;verticalAlign=top;html=1;outlineConnect=0;" parent="1" vertex="1">
          <mxGeometry x="290" y="160" width="20" height="30" as="geometry"/>
        </mxCell>
        <mxCell id="fRKQXHGXxSvQ_lllcBH7-10" value="" style="shape=umlActor;verticalLabelPosition=bottom;labelBackgroundColor=#ffffff;verticalAlign=top;html=1;outlineConnect=0;" parent="1" vertex="1">
          <mxGeometry x="270" y="160" width="20" height="30" as="geometry"/>
        </mxCell>
        <mxCell id="fRKQXHGXxSvQ_lllcBH7-11" value="" style="shape=umlActor;verticalLabelPosition=bottom;labelBackgroundColor=#ffffff;verticalAlign=top;html=1;outlineConnect=0;" parent="1" vertex="1">
          <mxGeometry x="310" y="160" width="20" height="30" as="geometry"/>
        </mxCell>
        <mxCell id="fRKQXHGXxSvQ_lllcBH7-15" value="产品" style="shape=cube;whiteSpace=wrap;html=1;boundedLbl=1;backgroundOutline=1;darkOpacity=0.05;darkOpacity2=0.1;" parent="1" vertex="1">
          <mxGeometry x="510" y="275" width="80" height="50" as="geometry"/>
        </mxCell>
        <mxCell id="fRKQXHGXxSvQ_lllcBH7-21" value="" style="endArrow=classic;startArrow=classic;html=1;entryX=0.5;entryY=1;entryDx=0;entryDy=0;" parent="1" source="fRKQXHGXxSvQ_lllcBH7-7" target="fRKQXHGXxSvQ_lllcBH7-1" edge="1">
          <mxGeometry width="50" height="50" relative="1" as="geometry">
            <mxPoint x="230" y="270" as="sourcePoint"/>
            <mxPoint x="280" y="220" as="targetPoint"/>
          </mxGeometry>
        </mxCell>
        <mxCell id="fRKQXHGXxSvQ_lllcBH7-22" value="调研/细化" style="text;html=1;resizable=0;points=[];align=center;verticalAlign=middle;labelBackgroundColor=#ffffff;" parent="fRKQXHGXxSvQ_lllcBH7-21" vertex="1" connectable="0">
          <mxGeometry x="0.0189" y="3" relative="1" as="geometry">
            <mxPoint as="offset"/>
          </mxGeometry>
        </mxCell>
        <mxCell id="fRKQXHGXxSvQ_lllcBH7-23" value="" style="endArrow=classic;startArrow=classic;html=1;exitX=1;exitY=0.5;exitDx=0;exitDy=0;entryX=0;entryY=0;entryDx=30;entryDy=0;entryPerimeter=0;" parent="1" source="fRKQXHGXxSvQ_lllcBH7-1" target="fRKQXHGXxSvQ_lllcBH7-15" edge="1">
          <mxGeometry width="50" height="50" relative="1" as="geometry">
            <mxPoint x="160" y="420" as="sourcePoint"/>
            <mxPoint x="210" y="370" as="targetPoint"/>
          </mxGeometry>
        </mxCell>
        <mxCell id="fRKQXHGXxSvQ_lllcBH7-24" value="投放/运营" style="text;html=1;resizable=0;points=[];align=center;verticalAlign=middle;labelBackgroundColor=#ffffff;" parent="fRKQXHGXxSvQ_lllcBH7-23" vertex="1" connectable="0">
          <mxGeometry x="-0.0472" relative="1" as="geometry">
            <mxPoint as="offset"/>
          </mxGeometry>
        </mxCell>
        <mxCell id="fRKQXHGXxSvQ_lllcBH7-25" value="" style="endArrow=classic;html=1;exitX=0.875;exitY=0.5;exitDx=0;exitDy=0;exitPerimeter=0;entryX=0;entryY=0.5;entryDx=0;entryDy=0;" parent="1" source="fRKQXHGXxSvQ_lllcBH7-4" target="fRKQXHGXxSvQ_lllcBH7-7" edge="1">
          <mxGeometry width="50" height="50" relative="1" as="geometry">
            <mxPoint x="220" y="440" as="sourcePoint"/>
            <mxPoint x="270" y="390" as="targetPoint"/>
          </mxGeometry>
        </mxCell>
        <mxCell id="fRKQXHGXxSvQ_lllcBH7-26" value="变现" style="text;html=1;resizable=0;points=[];align=center;verticalAlign=middle;labelBackgroundColor=#ffffff;" parent="fRKQXHGXxSvQ_lllcBH7-25" vertex="1" connectable="0">
          <mxGeometry x="-0.1846" y="3" relative="1" as="geometry">
            <mxPoint as="offset"/>
          </mxGeometry>
        </mxCell>
        <mxCell id="fRKQXHGXxSvQ_lllcBH7-30" value="&lt;ol&gt;&lt;li&gt;目标用户&lt;/li&gt;&lt;li&gt;需求调研&lt;/li&gt;&lt;li&gt;市场定位&lt;/li&gt;&lt;/ol&gt;" style="text;html=1;strokeColor=none;fillColor=none;align=left;verticalAlign=middle;whiteSpace=wrap;rounded=0;" parent="1" vertex="1">
          <mxGeometry x="440" y="70" width="150" height="20" as="geometry"/>
        </mxCell>
      </root>
    </mxGraphModel>
  </diagram>
</mxfile>
